<svg xmlns="http://www.w3.org/2000/svg" xmlns:xlink="http://www.w3.org/1999/xlink" width="217" height="130" viewBox="0 0 217 130"><defs><clipPath id="a"><rect width="101" height="87" fill="none"/></clipPath></defs><g><g transform="translate(-537.5 -1206.664) translate(-62.5 24.664)"><g fill="#fff" stroke="#333" stroke-width="1" transform="translate(624 1182)"><rect width="193" height="124" stroke="none" rx="4"/><rect width="192" height="123" x=".5" y=".5" fill="none" rx="3.5"/></g><rect width="191" height="18" fill="#c00" rx="4" transform="translate(600 1190)"/><g fill="rgba(255,255,255,0)" stroke="#000" stroke-width="1" transform="translate(781 1190)"><circle cx="3" cy="3" r="3" stroke="none"/><circle cx="3" cy="3" r="2.5" fill="none"/></g><g fill="rgba(255,255,255,0)" stroke="#000" stroke-width="1" transform="translate(791 1190)"><circle cx="3" cy="3" r="3" stroke="none"/><circle cx="3" cy="3" r="2.5" fill="none"/></g><g fill="rgba(255,255,255,0)" stroke="#000" stroke-width="1" transform="translate(801 1190)"><circle cx="3" cy="3" r="3" stroke="none"/><circle cx="3" cy="3" r="2.5" fill="none"/></g><g fill="#fff" stroke="#000" stroke-width="1" transform="translate(649 1212)"><rect width="31" height="89" stroke="none" rx="4"/><rect width="30" height="88" x=".5" y=".5" fill="none" rx="3.5"/></g><g clip-path="url(#a)" transform="translate(690 1212)"><g><g fill="#fff" stroke="#000" stroke-width="1" transform="translate(-690 -1212) translate(690 1212)"><rect width="101" height="8" stroke="none" rx="4"/><rect width="100" height="7" x=".5" y=".5" fill="none" rx="3.5"/></g></g><g><g fill="#fff" stroke="#000" stroke-width="1" transform="translate(-690 -1199) translate(690 1212)"><rect width="101" height="8" stroke="none" rx="4"/><rect width="100" height="7" x=".5" y=".5" fill="none" rx="3.5"/></g></g><g><g fill="#fff" stroke="#000" stroke-width="1" transform="translate(-690 -1186) translate(690 1212)"><rect width="101" height="8" stroke="none" rx="4"/><rect width="100" height="7" x=".5" y=".5" fill="none" rx="3.5"/></g></g><g><g fill="#fff" stroke="#000" stroke-width="1" transform="translate(-690 -1173) translate(690 1212)"><rect width="101" height="8" stroke="none" rx="4"/><rect width="100" height="7" x=".5" y=".5" fill="none" rx="3.5"/></g></g><g><g fill="#fff" stroke="#000" stroke-width="1" transform="translate(-690 -1160) translate(690 1212)"><rect width="101" height="8" stroke="none" rx="4"/><rect width="100" height="7" x=".5" y=".5" fill="none" rx="3.5"/></g></g><g><g fill="#fff" stroke="#000" stroke-width="1" transform="translate(-690 -1147) translate(690 1212)"><rect width="101" height="8" stroke="none" rx="4"/><rect width="100" height="7" x=".5" y=".5" fill="none" rx="3.5"/></g></g><g><g fill="#fff" stroke="#000" stroke-width="1" transform="translate(-690 -1134) translate(690 1212)"><rect width="101" height="8" stroke="none" rx="4"/><rect width="100" height="7" x=".5" y=".5" fill="none" rx="3.5"/></g></g></g><rect width="191" height="32" fill="rgba(183,2,2,0.1)" rx="4" transform="translate(600 1280)"/></g></g></svg>