<svg xmlns="http://www.w3.org/2000/svg" xmlns:svg="http://www.w3.org/2000/svg" id="svg64" width="182.711" height="226.942" version="1.1" viewBox="0 0 182.711 226.942"><metadata id="metadata70"/><g id="g62" opacity=".25" transform="matrix(-1,0,0,1,182.712,0)"><g id="g12"><path id="path2" fill="#ddd" d="m 164.185,42.31 0.076,45.357 -39.107,-22.5 -0.042,-44.267 z" opacity=".8" transform="translate(-85.631,-19.534)"/><path id="path4" fill="#ddd" d="m 179.466,87.047 0.09,-44.775 39.363,-21.372 0.043,44.263 z" opacity=".8" transform="translate(-179.438,-19.534)"/><path id="path6" fill="#f3f3f3" d="m 203.742,104.926 -39.107,-22.5 -39.524,21.9 39.481,23.3 z" opacity=".803" transform="translate(-125.112,-36.792)"/><path id="path8" fill="#fff" d="M 163,51.166 126.422,72.208 126.199,116.755 163.045,95.429 163,52.626 Z m 1.185,-0.55 0.047,45.495 -39.232,22.701 0.237,-47.3 36.548,-20.894 z" transform="translate(-85.519,-27.869)"/><path id="path10" fill="#fff" d="m 164.428,20.37 -36.964,21.354 37.159,20.951 36.609,-20.965 -36.8,-21.326 z m 0,-1.355 39.182,22.7 -38.983,22.3 L 125.066,41.747 164.428,19 Z" transform="translate(-124.947,-19)"/></g><g id="g24" transform="translate(52,45)"><path id="path14" fill="#ddd" d="m 164.185,42.31 0.076,45.357 -39.107,-22.5 -0.042,-44.267 z" opacity=".8" transform="translate(-85.631,-19.534)"/><path id="path16" fill="#ddd" d="m 179.466,87.047 0.09,-44.775 39.363,-21.372 0.043,44.263 z" opacity=".8" transform="translate(-179.438,-19.534)"/><path id="path18" fill="#f3f3f3" d="m 203.742,104.926 -39.107,-22.5 -39.524,21.9 39.481,23.3 z" opacity=".803" transform="translate(-125.112,-36.792)"/><path id="path20" fill="#fff" d="M 163,51.166 126.422,72.208 126.199,116.755 163.045,95.429 163,52.626 Z m 1.185,-0.55 0.047,45.495 -39.232,22.701 0.237,-47.3 36.548,-20.894 z" transform="translate(-85.519,-27.869)"/><path id="path22" fill="#fff" d="m 164.428,20.37 -36.964,21.354 37.159,20.951 36.609,-20.965 -36.8,-21.326 z m 0,-1.355 39.182,22.7 -38.983,22.3 L 125.066,41.747 164.428,19 Z" transform="translate(-124.947,-19)"/></g><g id="g36" transform="translate(0,90)"><path id="path26" fill="#ddd" d="m 164.185,42.31 0.076,45.357 -39.107,-22.5 -0.042,-44.267 z" opacity=".8" transform="translate(-85.631,-19.534)"/><path id="path28" fill="#ddd" d="m 179.466,87.047 0.09,-44.775 39.363,-21.372 0.043,44.263 z" opacity=".8" transform="translate(-179.438,-19.534)"/><path id="path30" fill="#f3f3f3" d="m 203.742,104.926 -39.107,-22.5 -39.524,21.9 39.481,23.3 z" opacity=".803" transform="translate(-125.112,-36.792)"/><path id="path32" fill="#fff" d="M 163,51.166 126.422,72.208 126.199,116.755 163.045,95.429 163,52.626 Z m 1.185,-0.55 0.047,45.495 -39.232,22.701 0.237,-47.3 36.548,-20.894 z" transform="translate(-85.519,-27.869)"/><path id="path34" fill="#fff" d="m 164.428,20.37 -36.964,21.354 37.159,20.951 36.609,-20.965 -36.8,-21.326 z m 0,-1.355 39.182,22.7 -38.983,22.3 L 125.066,41.747 164.428,19 Z" transform="translate(-124.947,-19)"/></g><g id="g48" transform="translate(104,91)"><path id="path38" fill="#ddd" d="m 164.185,42.31 0.076,45.357 -39.107,-22.5 -0.042,-44.267 z" opacity=".8" transform="translate(-85.631,-19.534)"/><path id="path40" fill="#ddd" d="m 179.466,87.047 0.09,-44.775 39.363,-21.372 0.043,44.263 z" opacity=".8" transform="translate(-179.438,-19.534)"/><path id="path42" fill="#f3f3f3" d="m 203.742,104.926 -39.107,-22.5 -39.524,21.9 39.481,23.3 z" opacity=".803" transform="translate(-125.112,-36.792)"/><path id="path44" fill="#fff" d="M 163,51.166 126.422,72.208 126.199,116.755 163.045,95.429 163,52.626 Z m 1.185,-0.55 0.047,45.495 -39.232,22.701 0.237,-47.3 36.548,-20.894 z" transform="translate(-85.519,-27.869)"/><path id="path46" fill="#fff" d="m 164.428,20.37 -36.964,21.354 37.159,20.951 36.609,-20.965 -36.8,-21.326 z m 0,-1.355 39.182,22.7 -38.983,22.3 L 125.066,41.747 164.428,19 Z" transform="translate(-124.947,-19)"/></g><g id="g60" transform="translate(52,136)"><path id="path50" fill="#ddd" d="m 164.185,42.31 0.076,45.357 -39.107,-22.5 -0.042,-44.267 z" opacity=".8" transform="translate(-85.631,-19.534)"/><path id="path52" fill="#ddd" d="m 179.466,87.047 0.09,-44.775 39.363,-21.372 0.043,44.263 z" opacity=".8" transform="translate(-179.438,-19.534)"/><path id="path54" fill="#f3f3f3" d="m 203.742,104.926 -39.107,-22.5 -39.524,21.9 39.481,23.3 z" opacity=".803" transform="translate(-125.112,-36.792)"/><path id="path56" fill="#fff" d="M 163,51.166 126.422,72.208 126.199,116.755 163.045,95.429 163,52.626 Z m 1.185,-0.55 0.047,45.495 -39.232,22.701 0.237,-47.3 36.548,-20.894 z" transform="translate(-85.519,-27.869)"/><path id="path58" fill="#fff" d="m 164.428,20.37 -36.964,21.354 37.159,20.951 36.609,-20.965 -36.8,-21.326 z m 0,-1.355 39.182,22.7 -38.983,22.3 L 125.066,41.747 164.428,19 Z" transform="translate(-124.947,-19)"/></g></g></svg>